# xmcd
#
# Track frame offsets: 
#        150
#        20301
#        36832
#        56456
#        77774
#        107615
#        121476
#        143644
#        165988
#        180350
#        191207
#        208235
#        228771
#
# Disc length: 3270 seconds
#
# Revision: 0
# Processed by: cddbd v1.5.2PL0 Copyright (c) Steve Scherf et al.
# Submitted via: ExactAudioCopy v1.0b3
#
DISCID=a20cc40d
DTITLE=Old Major - ...​With Love
DYEAR=2014
DGENRE=QOTSA rock
TTITLE0=Heels and Hooves
TTITLE1=Snake Charmer
TTITLE2=Lint Giver
TTITLE3=Epsom Salts
TTITLE4=In Dog Years
TTITLE5=Rhino
TTITLE6=Lightning Flowers
TTITLE7=You Let Us
TTITLE8=Spel Chek
TTITLE9=Wagoneers
TTITLE10=Elbows Out
TTITLE11=Here, at the End of All Things
TTITLE12=Fanning Flames
EXTD=
EXTT0=
EXTT1=
EXTT2=
EXTT3=
EXTT4=
EXTT5=
EXTT6=
EXTT7=
EXTT8=
EXTT9=
EXTT10=
EXTT11=
EXTT12=
PLAYORDER=
